<?xml version="1.0" encoding="UTF-8" standalone="no"?>
<!-- Created with Inkscape (http://www.inkscape.org/) -->

<svg
   xmlns:dc="http://purl.org/dc/elements/1.1/"
   xmlns:cc="http://creativecommons.org/ns#"
   xmlns:rdf="http://www.w3.org/1999/02/22-rdf-syntax-ns#"
   xmlns:svg="http://www.w3.org/2000/svg"
   xmlns="http://www.w3.org/2000/svg"
   xmlns:sodipodi="http://sodipodi.sourceforge.net/DTD/sodipodi-0.dtd"
   xmlns:inkscape="http://www.inkscape.org/namespaces/inkscape"
   width="512"
   height="512"
   viewBox="0 0 512.00001 512.00001"
   id="svg4317"
   version="1.1"
   inkscape:version="0.91 r13725"
   inkscape:export-filename="C:\Users\me\Desktop\Programming\GitHtml\Clone\AniMark\GameDev\GameMakerStudio\Images\Background.png"
   inkscape:export-xdpi="90"
   inkscape:export-ydpi="90"
   sodipodi:docname="HtmlBackground.svg">
  <defs
     id="defs4319" />
  <sodipodi:namedview
     id="base"
     pagecolor="#ffffff"
     bordercolor="#666666"
     borderopacity="1.0"
     inkscape:pageopacity="0.0"
     inkscape:pageshadow="2"
     inkscape:zoom="1.4"
     inkscape:cx="277.96888"
     inkscape:cy="323.11032"
     inkscape:document-units="px"
     inkscape:current-layer="layer3"
     showgrid="false"
     units="px"
     inkscape:window-width="1366"
     inkscape:window-height="716"
     inkscape:window-x="-8"
     inkscape:window-y="-8"
     inkscape:window-maximized="1" />
  <metadata
     id="metadata4322">
    <rdf:RDF>
      <cc:Work
         rdf:about="">
        <dc:format>image/svg+xml</dc:format>
        <dc:type
           rdf:resource="http://purl.org/dc/dcmitype/StillImage" />
        <dc:title></dc:title>
      </cc:Work>
    </rdf:RDF>
  </metadata>
  <g
     inkscape:label="Base"
     inkscape:groupmode="layer"
     id="layer1"
     transform="translate(0,-540.36216)"
     sodipodi:insensitive="true">
    <rect
       style="opacity:1;fill:#1a1a1a;fill-opacity:1;fill-rule:nonzero;stroke:none;stroke-width:0.30000001;stroke-linecap:butt;stroke-linejoin:miter;stroke-miterlimit:4;stroke-dasharray:none;stroke-dashoffset:0;stroke-opacity:1"
       id="rect4865"
       width="516.18793"
       height="516.18793"
       x="0"
       y="539.20465" />
  </g>
  <g
     inkscape:groupmode="layer"
     id="layer3"
     inkscape:label="Detail"
     style="display:inline;opacity:0.03">
    <path
       style="opacity:1;fill:#cccccc;fill-opacity:1;fill-rule:nonzero;stroke:none;stroke-width:0.30000001;stroke-linecap:butt;stroke-linejoin:miter;stroke-miterlimit:4;stroke-dasharray:none;stroke-dashoffset:0;stroke-opacity:1"
       d="m 516.79017,485.61099 -24.68453,0 0,29.3067 -5.02062,0 0,-29.3067 0,-5.07964 0,-0.42858 0,-0.35352 0,-28.95318 0,-5.07964 0,-0.78012 0,-28.95317 0,-5.07964 0,-0.78209 0,-28.95319 0,-5.07964 0,-0.7821 0,-28.9512 0,-5.08161 0,-0.78012 0,-28.95317 0,-5.07965 0,-0.7821 0,-28.95318 0,-5.07964 0,-0.78011 0,-28.95319 0,-5.08162 0,-0.7801 0,-28.95318 0,-5.07965 0,-0.78209 0,-28.95318 0,-5.07965 0,-0.7801 0,-28.95318 0,-5.07965 0,-0.78209 0,-28.95318 0,-5.079658 0,-0.78209 0,-28.9512 0,-5.08163 0,-0.78011 0,-28.95317 0,-5.07965 0,-0.7821 0,-28.6766707 5.02062,0 0,28.6766707 24.68453,0 0,5.86175 -24.68453,0 0,28.95317 24.68453,0 0,5.86174 -24.68453,0 0,28.9512 24.68453,0 0,5.861748 -24.68453,0 0,28.95318 24.68453,0 0,5.86174 -24.68453,0 0,28.95318 24.68453,0 0,5.85975 -24.68453,0 0,28.95318 24.68453,0 0,5.86174 -24.68453,0 0,28.95318 24.68453,0 0,5.86172 -24.68453,0 0,28.95319 24.68453,0 0,5.85975 -24.68453,0 0,28.95318 24.68453,0 0,5.86175 -24.68453,0 0,28.95317 24.68453,0 0,5.86173 -24.68453,0 0,28.9512 24.68453,0 0,5.86174 -24.68453,0 0,28.95319 24.68453,0 0,5.86173 -24.68453,0 0,28.95317 24.68453,0 0,5.85976 -24.68453,0 0,28.95318 24.68453,0 0,5.86174 z m -30.42098,0 -24.68453,0 0,29.3067 -5.02061,0 0,-29.3067 0,-5.07964 0,-0.42858 0,-0.35352 0,-28.95318 0,-5.07964 0,-0.78012 0,-28.95317 0,-5.07964 0,-0.78209 0,-28.95319 0,-5.07964 0,-0.7821 0,-28.9512 0,-5.08161 0,-0.78012 0,-28.95317 0,-5.07965 0,-0.7821 0,-28.95318 0,-5.07964 0,-0.78011 0,-28.95319 0,-5.08162 0,-0.7801 0,-28.95318 0,-5.07965 0,-0.78209 0,-28.95318 0,-5.07965 0,-0.7801 0,-28.95318 0,-5.07965 0,-0.78209 0,-28.95318 0,-5.079658 0,-0.78209 0,-28.9512 0,-5.08163 0,-0.78011 0,-28.95317 0,-5.07965 0,-0.7821 0,-28.6766707 5.02061,0 0,28.6766707 24.68453,0 0,5.86175 -24.68453,0 0,28.95317 24.68453,0 0,5.86174 -24.68453,0 0,28.9512 24.68453,0 0,5.861748 -24.68453,0 0,28.95318 24.68453,0 0,5.86174 -24.68453,0 0,28.95318 24.68453,0 0,5.85975 -24.68453,0 0,28.95318 24.68453,0 0,5.86174 -24.68453,0 0,28.95318 24.68453,0 0,5.86172 -24.68453,0 0,28.95319 24.68453,0 0,5.85975 -24.68453,0 0,28.95318 24.68453,0 0,5.86175 -24.68453,0 0,28.95317 24.68453,0 0,5.86173 -24.68453,0 0,28.9512 24.68453,0 0,5.86174 -24.68453,0 0,28.95319 24.68453,0 0,5.86173 -24.68453,0 0,28.95317 24.68453,0 0,5.85976 -24.68453,0 0,28.95318 24.68453,0 0,5.86174 z m -30.42098,0 -24.68453,0 0,29.3067 -5.02062,0 0,-29.3067 0,-5.07964 0,-0.42858 0,-0.35352 0,-28.95318 0,-5.07964 0,-0.78012 0,-28.95317 0,-5.07964 0,-0.78209 0,-28.95319 0,-5.07964 0,-0.7821 0,-28.9512 0,-5.08161 0,-0.78012 0,-28.95317 0,-5.07965 0,-0.7821 0,-28.95318 0,-5.07964 0,-0.78011 0,-28.95319 0,-5.08162 0,-0.7801 0,-28.95318 0,-5.07965 0,-0.78209 0,-28.95318 0,-5.07965 0,-0.7801 0,-28.95318 0,-5.07965 0,-0.78209 0,-28.95318 0,-5.079658 0,-0.78209 0,-28.9512 0,-5.08163 0,-0.78011 0,-28.95317 0,-5.07965 0,-0.7821 0,-28.6766707 5.02062,0 0,28.6766707 24.68453,0 0,5.86175 -24.68453,0 0,28.95317 24.68453,0 0,5.86174 -24.68453,0 0,28.9512 24.68453,0 0,5.861748 -24.68453,0 0,28.95318 24.68453,0 0,5.86174 -24.68453,0 0,28.95318 24.68453,0 0,5.85975 -24.68453,0 0,28.95318 24.68453,0 0,5.86174 -24.68453,0 0,28.95318 24.68453,0 0,5.86172 -24.68453,0 0,28.95319 24.68453,0 0,5.85975 -24.68453,0 0,28.95318 24.68453,0 0,5.86175 -24.68453,0 0,28.95317 24.68453,0 0,5.86173 -24.68453,0 0,28.9512 24.68453,0 0,5.86174 -24.68453,0 0,28.95319 24.68453,0 0,5.86173 -24.68453,0 0,28.95317 24.68453,0 0,5.85976 -24.68453,0 0,28.95318 24.68453,0 0,5.86174 z m -30.42098,0 -24.68454,0 0,29.3067 -5.02061,0 0,-29.3067 0,-5.07964 0,-0.42858 0,-0.35352 0,-28.95318 0,-5.07964 0,-0.78012 0,-28.95317 0,-5.07964 0,-0.78209 0,-28.95319 0,-5.07964 0,-0.7821 0,-28.9512 0,-5.08161 0,-0.78012 0,-28.95317 0,-5.07965 0,-0.7821 0,-28.95318 0,-5.07964 0,-0.78011 0,-28.95319 0,-5.08162 0,-0.7801 0,-28.95318 0,-5.07965 0,-0.78209 0,-28.95318 0,-5.07965 0,-0.7801 0,-28.95318 0,-5.07965 0,-0.78209 0,-28.95318 0,-5.079658 0,-0.78209 0,-28.9512 0,-5.08163 0,-0.78011 0,-28.95317 0,-5.07965 0,-0.7821 0,-28.6766707 5.02061,0 0,28.6766707 24.68454,0 0,5.86175 -24.68454,0 0,28.95317 24.68454,0 0,5.86174 -24.68454,0 0,28.9512 24.68454,0 0,5.861748 -24.68454,0 0,28.95318 24.68454,0 0,5.86174 -24.68454,0 0,28.95318 24.68454,0 0,5.85975 -24.68454,0 0,28.95318 24.68454,0 0,5.86174 -24.68454,0 0,28.95318 24.68454,0 0,5.86172 -24.68454,0 0,28.95319 24.68454,0 0,5.85975 -24.68454,0 0,28.95318 24.68454,0 0,5.86175 -24.68454,0 0,28.95317 24.68454,0 0,5.86173 -24.68454,0 0,28.9512 24.68454,0 0,5.86174 -24.68454,0 0,28.95319 24.68454,0 0,5.86173 -24.68454,0 0,28.95317 24.68454,0 0,5.85976 -24.68454,0 0,28.95318 24.68454,0 0,5.86174 z m -30.42098,0 -24.68453,0 0,29.3067 -5.02062,0 0,-29.3067 0,-5.07964 0,-0.42858 0,-0.35352 0,-28.95318 0,-5.07964 0,-0.78012 0,-28.95317 0,-5.07964 0,-0.78209 0,-28.95319 0,-5.07964 0,-0.7821 0,-28.9512 0,-5.08161 0,-0.78012 0,-28.95317 0,-5.07965 0,-0.7821 0,-28.95318 0,-5.07964 0,-0.78011 0,-28.95319 0,-5.08162 0,-0.7801 0,-28.95318 0,-5.07965 0,-0.78209 0,-28.95318 0,-5.07965 0,-0.7801 0,-28.95318 0,-5.07965 0,-0.78209 0,-28.95318 0,-5.079658 0,-0.78209 0,-28.9512 0,-5.08163 0,-0.78011 0,-28.95317 0,-5.07965 0,-0.7821 0,-28.6766707 5.02062,0 0,28.6766707 24.68453,0 0,5.86175 -24.68453,0 0,28.95317 24.68453,0 0,5.86174 -24.68453,0 0,28.9512 24.68453,0 0,5.861748 -24.68453,0 0,28.95318 24.68453,0 0,5.86174 -24.68453,0 0,28.95318 24.68453,0 0,5.85975 -24.68453,0 0,28.95318 24.68453,0 0,5.86174 -24.68453,0 0,28.95318 24.68453,0 0,5.86172 -24.68453,0 0,28.95319 24.68453,0 0,5.85975 -24.68453,0 0,28.95318 24.68453,0 0,5.86175 -24.68453,0 0,28.95317 24.68453,0 0,5.86173 -24.68453,0 0,28.9512 24.68453,0 0,5.86174 -24.68453,0 0,28.95319 24.68453,0 0,5.86173 -24.68453,0 0,28.95317 24.68453,0 0,5.85976 -24.68453,0 0,28.95318 24.68453,0 0,5.86174 z m -30.41903,0 -24.68649,0 0,29.3067 -5.02061,0 0,-29.3067 0,-5.07964 0,-0.42858 0,-0.35352 0,-28.95318 0,-5.07964 0,-0.78012 0,-28.95317 0,-5.07964 0,-0.78209 0,-28.95319 0,-5.07964 0,-0.7821 0,-28.9512 0,-5.08161 0,-0.78012 0,-28.95317 0,-5.07965 0,-0.7821 0,-28.95318 0,-5.07964 0,-0.78011 0,-28.95319 0,-5.08162 0,-0.7801 0,-28.95318 0,-5.07965 0,-0.78209 0,-28.95318 0,-5.07965 0,-0.7801 0,-28.95318 0,-5.07965 0,-0.78209 0,-28.95318 0,-5.079658 0,-0.78209 0,-28.9512 0,-5.08163 0,-0.78011 0,-28.95317 0,-5.07965 0,-0.7821 0,-28.6766707 5.02061,0 0,28.6766707 24.68649,0 0,5.86175 -24.68649,0 0,28.95317 24.68649,0 0,5.86174 -24.68649,0 0,28.9512 24.68649,0 0,5.861748 -24.68649,0 0,28.95318 24.68649,0 0,5.86174 -24.68649,0 0,28.95318 24.68649,0 0,5.85975 -24.68649,0 0,28.95318 24.68649,0 0,5.86174 -24.68649,0 0,28.95318 24.68649,0 0,5.86172 -24.68649,0 0,28.95319 24.68649,0 0,5.85975 -24.68649,0 0,28.95318 24.68649,0 0,5.86175 -24.68649,0 0,28.95317 24.68649,0 0,5.86173 -24.68649,0 0,28.9512 24.68649,0 0,5.86174 -24.68649,0 0,28.95319 24.68649,0 0,5.86173 -24.68649,0 0,28.95317 24.68649,0 0,5.85976 -24.68649,0 0,28.95318 24.68649,0 0,5.86174 z m -30.42098,0 -24.68648,0 0,29.3067 -5.02063,0 0,-29.3067 0,-5.07964 0,-0.42858 0,-0.35352 0,-28.95318 0,-5.07964 0,-0.78012 0,-28.95317 0,-5.07964 0,-0.78209 0,-28.95319 0,-5.07964 0,-0.7821 0,-28.9512 0,-5.08161 0,-0.78012 0,-28.95317 0,-5.07965 0,-0.7821 0,-28.95318 0,-5.07964 0,-0.78011 0,-28.95319 0,-5.08162 0,-0.7801 0,-28.95318 0,-5.07965 0,-0.78209 0,-28.95318 0,-5.07965 0,-0.7801 0,-28.95318 0,-5.07965 0,-0.78209 0,-28.95318 0,-5.079658 0,-0.78209 0,-28.9512 0,-5.08163 0,-0.78011 0,-28.95317 0,-5.07965 0,-0.7821 0,-28.6766707 5.02063,0 0,28.6766707 24.68648,0 0,5.86175 -24.68648,0 0,28.95317 24.68648,0 0,5.86174 -24.68648,0 0,28.9512 24.68648,0 0,5.861748 -24.68648,0 0,28.95318 24.68648,0 0,5.86174 -24.68648,0 0,28.95318 24.68648,0 0,5.85975 -24.68648,0 0,28.95318 24.68648,0 0,5.86174 -24.68648,0 0,28.95318 24.68648,0 0,5.86172 -24.68648,0 0,28.95319 24.68648,0 0,5.85975 -24.68648,0 0,28.95318 24.68648,0 0,5.86175 -24.68648,0 0,28.95317 24.68648,0 0,5.86173 -24.68648,0 0,28.9512 24.68648,0 0,5.86174 -24.68648,0 0,28.95319 24.68648,0 0,5.86173 -24.68648,0 0,28.95317 24.68648,0 0,5.85976 -24.68648,0 0,28.95318 24.68648,0 0,5.86174 z m -30.42098,0 -24.68454,0 0,29.3067 -5.02061,0 0,-29.3067 0,-5.07964 0,-0.42858 0,-0.35352 0,-28.95318 0,-5.07964 0,-0.78012 0,-28.95317 0,-5.07964 0,-0.78209 0,-28.95319 0,-5.07964 0,-0.7821 0,-28.9512 0,-5.08161 0,-0.78012 0,-28.95317 0,-5.07965 0,-0.7821 0,-28.95318 0,-5.07964 0,-0.78011 0,-28.95319 0,-5.08162 0,-0.7801 0,-28.95318 0,-5.07965 0,-0.78209 0,-28.95318 0,-5.07965 0,-0.7801 0,-28.95318 0,-5.07965 0,-0.78209 0,-28.95318 0,-5.079658 0,-0.78209 0,-28.9512 0,-5.08163 0,-0.78011 0,-28.95317 0,-5.07965 0,-0.7821 0,-28.6766707 5.02061,0 0,28.6766707 24.68454,0 0,5.86175 -24.68454,0 0,28.95317 24.68454,0 0,5.86174 -24.68454,0 0,28.9512 24.68454,0 0,5.861748 -24.68454,0 0,28.95318 24.68454,0 0,5.86174 -24.68454,0 0,28.95318 24.68454,0 0,5.85975 -24.68454,0 0,28.95318 24.68454,0 0,5.86174 -24.68454,0 0,28.95318 24.68454,0 0,5.86172 -24.68454,0 0,28.95319 24.68454,0 0,5.85975 -24.68454,0 0,28.95318 24.68454,0 0,5.86175 -24.68454,0 0,28.95317 24.68454,0 0,5.86173 -24.68454,0 0,28.9512 24.68454,0 0,5.86174 -24.68454,0 0,28.95319 24.68454,0 0,5.86173 -24.68454,0 0,28.95317 24.68454,0 0,5.85976 -24.68454,0 0,28.95318 24.68454,0 0,5.86174 z m -30.42098,0 -24.68453,0 0,29.3067 -5.02063,0 0,-29.3067 0,-5.07964 0,-0.42858 0,-0.35352 0,-28.95318 0,-5.07964 0,-0.78012 0,-28.95317 0,-5.07964 0,-0.78209 0,-28.95319 0,-5.07964 0,-0.7821 0,-28.9512 0,-5.08161 0,-0.78012 0,-28.95317 0,-5.07965 0,-0.7821 0,-28.95318 0,-5.07964 0,-0.78011 0,-28.95319 0,-5.08162 0,-0.7801 0,-28.95318 0,-5.07965 0,-0.78209 0,-28.95318 0,-5.07965 0,-0.7801 0,-28.95318 0,-5.07965 0,-0.78209 0,-28.95318 0,-5.079658 0,-0.78209 0,-28.9512 0,-5.08163 0,-0.78011 0,-28.95317 0,-5.07965 0,-0.7821 0,-28.6766707 5.02063,0 0,28.6766707 24.68453,0 0,5.86175 -24.68453,0 0,28.95317 24.68453,0 0,5.86174 -24.68453,0 0,28.9512 24.68453,0 0,5.861748 -24.68453,0 0,28.95318 24.68453,0 0,5.86174 -24.68453,0 0,28.95318 24.68453,0 0,5.85975 -24.68453,0 0,28.95318 24.68453,0 0,5.86174 -24.68453,0 0,28.95318 24.68453,0 0,5.86172 -24.68453,0 0,28.95319 24.68453,0 0,5.85975 -24.68453,0 0,28.95318 24.68453,0 0,5.86175 -24.68453,0 0,28.95317 24.68453,0 0,5.86173 -24.68453,0 0,28.9512 24.68453,0 0,5.86174 -24.68453,0 0,28.95319 24.68453,0 0,5.86173 -24.68453,0 0,28.95317 24.68453,0 0,5.85976 -24.68453,0 0,28.95318 24.68453,0 0,5.86174 z m -30.42099,0 -24.68453,0 0,29.3067 -5.02061,0 0,-29.3067 0,-5.07964 0,-0.42858 0,-0.35352 0,-28.95318 0,-5.07964 0,-0.78012 0,-28.95317 0,-5.07964 0,-0.78209 0,-28.95319 0,-5.07964 0,-0.7821 0,-28.9512 0,-5.08161 0,-0.78012 0,-28.95317 0,-5.07965 0,-0.7821 0,-28.95318 0,-5.07964 0,-0.78011 0,-28.95319 0,-5.08162 0,-0.7801 0,-28.95318 0,-5.07965 0,-0.78209 0,-28.95318 0,-5.07965 0,-0.7801 0,-28.95318 0,-5.07965 0,-0.78209 0,-28.95318 0,-5.079658 0,-0.78209 0,-28.9512 0,-5.08163 0,-0.78011 0,-28.95317 0,-5.07965 0,-0.7821 0,-28.6766707 5.02061,0 0,28.6766707 24.68453,0 0,5.86175 -24.68453,0 0,28.95317 24.68453,0 0,5.86174 -24.68453,0 0,28.9512 24.68453,0 0,5.861748 -24.68453,0 0,28.95318 24.68453,0 0,5.86174 -24.68453,0 0,28.95318 24.68453,0 0,5.85975 -24.68453,0 0,28.95318 24.68453,0 0,5.86174 -24.68453,0 0,28.95318 24.68453,0 0,5.86172 -24.68453,0 0,28.95319 24.68453,0 0,5.85975 -24.68453,0 0,28.95318 24.68453,0 0,5.86175 -24.68453,0 0,28.95317 24.68453,0 0,5.86173 -24.68453,0 0,28.9512 24.68453,0 0,5.86174 -24.68453,0 0,28.95319 24.68453,0 0,5.86173 -24.68453,0 0,28.95317 24.68453,0 0,5.85976 -24.68453,0 0,28.95318 24.68453,0 0,5.86174 z m -30.42098,0 -24.68453,0 0,29.3067 -5.02062,0 0,-29.3067 0,-5.07964 0,-0.42858 0,-0.35352 0,-28.95318 0,-5.07964 0,-0.78012 0,-28.95317 0,-5.07964 0,-0.78209 0,-28.95319 0,-5.07964 0,-0.7821 0,-28.9512 0,-5.08161 0,-0.78012 0,-28.95317 0,-5.07965 0,-0.7821 0,-28.95318 0,-5.07964 0,-0.78011 0,-28.95319 0,-5.08162 0,-0.7801 0,-28.95318 0,-5.07965 0,-0.78209 0,-28.95318 0,-5.07965 0,-0.7801 0,-28.95318 0,-5.07965 0,-0.78209 0,-28.95318 0,-5.079658 0,-0.78209 0,-28.9512 0,-5.08163 0,-0.78011 0,-28.95317 0,-5.07965 0,-0.7821 0,-28.6766707 5.02062,0 0,28.6766707 24.68453,0 0,5.86175 -24.68453,0 0,28.95317 24.68453,0 0,5.86174 -24.68453,0 0,28.9512 24.68453,0 0,5.861748 -24.68453,0 0,28.95318 24.68453,0 0,5.86174 -24.68453,0 0,28.95318 24.68453,0 0,5.85975 -24.68453,0 0,28.95318 24.68453,0 0,5.86174 -24.68453,0 0,28.95318 24.68453,0 0,5.86172 -24.68453,0 0,28.95319 24.68453,0 0,5.85975 -24.68453,0 0,28.95318 24.68453,0 0,5.86175 -24.68453,0 0,28.95317 24.68453,0 0,5.86173 -24.68453,0 0,28.9512 24.68453,0 0,5.86174 -24.68453,0 0,28.95319 24.68453,0 0,5.86173 -24.68453,0 0,28.95317 24.68453,0 0,5.85976 -24.68453,0 0,28.95318 24.68453,0 0,5.86174 z m -30.42098,0 -24.68453,0 0,29.3067 -5.02062,0 0,-29.3067 0,-5.07964 0,-0.42858 0,-0.35352 0,-28.95318 0,-5.07964 0,-0.78012 0,-28.95317 0,-5.07964 0,-0.78209 0,-28.95319 0,-5.07964 0,-0.7821 0,-28.9512 0,-5.08161 0,-0.78012 0,-28.95317 0,-5.07965 0,-0.7821 0,-28.95318 0,-5.07964 0,-0.78011 0,-28.95319 0,-5.08162 0,-0.7801 0,-28.95318 0,-5.07965 0,-0.78209 0,-28.95318 0,-5.07965 0,-0.7801 0,-28.95318 0,-5.07965 0,-0.78209 0,-28.95318 0,-5.079658 0,-0.78209 0,-28.9512 0,-5.08163 0,-0.78011 0,-28.95317 0,-5.07965 0,-0.7821 0,-28.6766707 5.02062,0 0,28.6766707 24.68453,0 0,5.86175 -24.68453,0 0,28.95317 24.68453,0 0,5.86174 -24.68453,0 0,28.9512 24.68453,0 0,5.861748 -24.68453,0 0,28.95318 24.68453,0 0,5.86174 -24.68453,0 0,28.95318 24.68453,0 0,5.85975 -24.68453,0 0,28.95318 24.68453,0 0,5.86174 -24.68453,0 0,28.95318 24.68453,0 0,5.86172 -24.68453,0 0,28.95319 24.68453,0 0,5.85975 -24.68453,0 0,28.95318 24.68453,0 0,5.86175 -24.68453,0 0,28.95317 24.68453,0 0,5.86173 -24.68453,0 0,28.9512 24.68453,0 0,5.86174 -24.68453,0 0,28.95319 24.68453,0 0,5.86173 -24.68453,0 0,28.95317 24.68453,0 0,5.85976 -24.68453,0 0,28.95318 24.68453,0 0,5.86174 z m -30.42098,0 -24.68453,0 0,29.3067 -5.02062,0 0,-29.3067 0,-5.07964 0,-0.42858 0,-0.35352 0,-28.95318 0,-5.07964 0,-0.78012 0,-28.95317 0,-5.07964 0,-0.78209 0,-28.95319 0,-5.07964 0,-0.7821 0,-28.9512 0,-5.08161 0,-0.78012 0,-28.95317 0,-5.07965 0,-0.7821 0,-28.95318 0,-5.07964 0,-0.78011 0,-28.95319 0,-5.08162 0,-0.7801 0,-28.95318 0,-5.07965 0,-0.78209 0,-28.95318 0,-5.07965 0,-0.7801 0,-28.95318 0,-5.07965 0,-0.78209 0,-28.95318 0,-5.079658 0,-0.78209 0,-28.9512 0,-5.08163 0,-0.78011 0,-28.95317 0,-5.07965 0,-0.7821 0,-28.6766707 5.02062,0 0,28.6766707 24.68453,0 0,5.86175 -24.68453,0 0,28.95317 24.68453,0 0,5.86174 -24.68453,0 0,28.9512 24.68453,0 0,5.861748 -24.68453,0 0,28.95318 24.68453,0 0,5.86174 -24.68453,0 0,28.95318 24.68453,0 0,5.85975 -24.68453,0 0,28.95318 24.68453,0 0,5.86174 -24.68453,0 0,28.95318 24.68453,0 0,5.86172 -24.68453,0 0,28.95319 24.68453,0 0,5.85975 -24.68453,0 0,28.95318 24.68453,0 0,5.86175 -24.68453,0 0,28.95317 24.68453,0 0,5.86173 -24.68453,0 0,28.9512 24.68453,0 0,5.86174 -24.68453,0 0,28.95319 24.68453,0 0,5.86173 -24.68453,0 0,28.95317 24.68453,0 0,5.85976 -24.68453,0 0,28.95318 24.68453,0 0,5.86174 z m -30.41902,0 -24.686497,0 0,29.3067 -5.020614,0 0,-29.3067 0,-5.07964 0,-0.42858 0,-0.35352 0,-28.95318 0,-5.07964 0,-0.78012 0,-28.95317 0,-5.07964 0,-0.78209 0,-28.95319 0,-5.07964 0,-0.7821 0,-28.9512 0,-5.08161 0,-0.78012 0,-28.95317 0,-5.07965 0,-0.7821 0,-28.95318 0,-5.07964 0,-0.78011 0,-28.95319 0,-5.08162 0,-0.7801 0,-28.95318 0,-5.07965 0,-0.78209 0,-28.95318 0,-5.07965 0,-0.7801 0,-28.95318 0,-5.07965 0,-0.78209 0,-28.95318 0,-5.079658 0,-0.78209 0,-28.9512 0,-5.08163 0,-0.78011 0,-28.95317 0,-5.07965 0,-0.7821 0,-28.6766707 5.020614,0 0,28.6766707 24.686497,0 0,5.86175 -24.686497,0 0,28.95317 24.686497,0 0,5.86174 -24.686497,0 0,28.9512 24.686497,0 0,5.861748 -24.686497,0 0,28.95318 24.686497,0 0,5.86174 -24.686497,0 0,28.95318 24.686497,0 0,5.85975 -24.686497,0 0,28.95318 24.686497,0 0,5.86174 -24.686497,0 0,28.95318 24.686497,0 0,5.86172 -24.686497,0 0,28.95319 24.686497,0 0,5.85975 -24.686497,0 0,28.95318 24.686497,0 0,5.86175 -24.686497,0 0,28.95317 24.686497,0 0,5.86173 -24.686497,0 0,28.9512 24.686497,0 0,5.86174 -24.686497,0 0,28.95319 24.686497,0 0,5.86173 -24.686497,0 0,28.95317 24.686497,0 0,5.85976 -24.686497,0 0,28.95318 24.686497,0 0,5.86174 z m -30.420989,0 -24.686484,0 0,29.3067 -5.020614,0 0,-29.3067 0,-5.07964 0,-0.42858 0,-0.35352 0,-28.95318 0,-5.07964 0,-0.78012 0,-28.95317 0,-5.07964 0,-0.78209 0,-28.95319 0,-5.07964 0,-0.7821 0,-28.9512 0,-5.08161 0,-0.78012 0,-28.95317 0,-5.07965 0,-0.7821 0,-28.95318 0,-5.07964 0,-0.78011 0,-28.95319 0,-5.08162 0,-0.7801 0,-28.95318 0,-5.07965 0,-0.78209 0,-28.95318 0,-5.07965 0,-0.7801 0,-28.95318 0,-5.07965 0,-0.78209 0,-28.95318 0,-5.079658 0,-0.78209 0,-28.9512 0,-5.08163 0,-0.78011 0,-28.95317 0,-5.07965 0,-0.7821 0,-28.6766707 5.020614,0 0,28.6766707 24.686484,0 0,5.86175 -24.686484,0 0,28.95317 24.686484,0 0,5.86174 -24.686484,0 0,28.9512 24.686484,0 0,5.861748 -24.686484,0 0,28.95318 24.686484,0 0,5.86174 -24.686484,0 0,28.95318 24.686484,0 0,5.85975 -24.686484,0 0,28.95318 24.686484,0 0,5.86174 -24.686484,0 0,28.95318 24.686484,0 0,5.86172 -24.686484,0 0,28.95319 24.686484,0 0,5.85975 -24.686484,0 0,28.95318 24.686484,0 0,5.86175 -24.686484,0 0,28.95317 24.686484,0 0,5.86173 -24.686484,0 0,28.9512 24.686484,0 0,5.86174 -24.686484,0 0,28.95319 24.686484,0 0,5.86173 -24.686484,0 0,28.95317 24.686484,0 0,5.85976 -24.686484,0 0,28.95318 24.686484,0 0,5.86174 z m -30.420975,0 -24.686494,0 0,29.3067 -5.020614,0 0,-29.3067 0,-5.07964 0,-0.42858 0,-0.35352 0,-28.95318 0,-5.07964 0,-0.78012 0,-28.95317 0,-5.07964 0,-0.78209 0,-28.95319 0,-5.07964 0,-0.7821 0,-28.9512 0,-5.08161 0,-0.78012 0,-28.95317 0,-5.07965 0,-0.7821 0,-28.95318 0,-5.07964 0,-0.78011 0,-28.95319 0,-5.08162 0,-0.7801 0,-28.95318 0,-5.07965 0,-0.78209 0,-28.95318 0,-5.07965 0,-0.7801 0,-28.95318 0,-5.07965 0,-0.78209 0,-28.95318 0,-5.079658 0,-0.78209 0,-28.9512 0,-5.08163 0,-0.78011 0,-28.95317 0,-5.07965 0,-0.7821 0,-28.6766707 5.020614,0 0,28.6766707 24.686494,0 0,5.86175 -24.686494,0 0,28.95317 24.686494,0 0,5.86174 -24.686494,0 0,28.9512 24.686494,0 0,5.861748 -24.686494,0 0,28.95318 24.686494,0 0,5.86174 -24.686494,0 0,28.95318 24.686494,0 0,5.85975 -24.686494,0 0,28.95318 24.686494,0 0,5.86174 -24.686494,0 0,28.95318 24.686494,0 0,5.86172 -24.686494,0 0,28.95319 24.686494,0 0,5.85975 -24.686494,0 0,28.95318 24.686494,0 0,5.86175 -24.686494,0 0,28.95317 24.686494,0 0,5.86173 -24.686494,0 0,28.9512 24.686494,0 0,5.86174 -24.686494,0 0,28.95319 24.686494,0 0,5.86173 -24.686494,0 0,28.95317 24.686494,0 0,5.85976 -24.686494,0 0,28.95318 24.686494,0 0,5.86174 z m -30.420985,0 -24.6845314,0 0,29.3067 -5.02061402,0 0,-29.3067 0,-5.07964 0,-0.42858 0,-0.35352 0,-28.95318 0,-5.07964 0,-0.78012 0,-28.95317 0,-5.07964 0,-0.78209 0,-28.95319 0,-5.07964 0,-0.7821 0,-28.9512 0,-5.08161 0,-0.78012 0,-28.95317 0,-5.07965 0,-0.7821 0,-28.95318 0,-5.07964 0,-0.78011 0,-28.95319 0,-5.08162 0,-0.7801 0,-28.95318 0,-5.07965 0,-0.78209 0,-28.95318 0,-5.07965 0,-0.7801 0,-28.95318 0,-5.07965 0,-0.78209 0,-28.95318 0,-5.079658 0,-0.78209 0,-28.9512 0,-5.08163 0,-0.78011 0,-28.95317 0,-5.07965 0,-0.7821 0,-28.6766707 5.02061402,0 0,28.6766707 24.6845314,0 0,5.86175 -24.6845314,0 0,28.95317 24.6845314,0 0,5.86174 -24.6845314,0 0,28.9512 24.6845314,0 0,5.861748 -24.6845314,0 0,28.95318 24.6845314,0 0,5.86174 -24.6845314,0 0,28.95318 24.6845314,0 0,5.85975 -24.6845314,0 0,28.95318 24.6845314,0 0,5.86174 -24.6845314,0 0,28.95318 24.6845314,0 0,5.86172 -24.6845314,0 0,28.95319 24.6845314,0 0,5.85975 -24.6845314,0 0,28.95318 24.6845314,0 0,5.86175 -24.6845314,0 0,28.95317 24.6845314,0 0,5.86173 -24.6845314,0 0,28.9512 24.6845314,0 0,5.86174 -24.6845314,0 0,28.95319 24.6845314,0 0,5.86173 -24.6845314,0 0,28.95317 24.6845314,0 0,5.85976 -24.6845314,0 0,28.95318 24.6845314,0 0,5.86174 z"
       id="rect4868"
       inkscape:connector-curvature="0" />
  </g>
</svg>
